<svg width="15" height="10" viewBox="0 0 15 10" fill="none" xmlns="http://www.w3.org/2000/svg">
<path d="M5.90063 4.58518C6.99428 4.89038 7.52839 5.7297 7.52839 6.84878C7.52839 8.68002 6.00237 9.46846 4.34917 9.46846H0V0.46491H4.24744C5.77346 0.46491 7.12145 0.897284 7.12145 2.70308C7.12145 3.59326 6.68908 4.17824 5.90063 4.58518ZM1.9584 1.99094V4.10194H3.96767C4.67981 4.10194 5.18849 3.79673 5.18849 3.03372C5.18849 2.19441 4.55264 1.99094 3.8405 1.99094H1.9584ZM4.09484 7.94244C4.88328 7.94244 5.54456 7.66266 5.54456 6.74705C5.54456 5.83143 5.01045 5.44993 4.12027 5.44993H1.9584V7.94244H4.09484ZM13.2001 1.8129H9.56309V0.922718H13.2001V1.8129ZM14.6498 6.31468C14.6498 6.41641 14.6244 6.54358 14.6244 6.64531H9.91917C9.91917 7.6881 10.4787 8.29851 11.5215 8.29851C12.0556 8.29851 12.7677 8.01874 12.9458 7.45919H14.5227C14.0394 8.93435 13.0221 9.6465 11.4706 9.6465C9.41049 9.6465 8.11337 8.24764 8.11337 6.21294C8.11337 4.25454 9.46136 2.75395 11.4706 2.75395C13.5053 2.75395 14.6498 4.38171 14.6498 6.31468ZM9.91917 5.50079H12.844C12.7677 4.63605 12.3099 4.12737 11.3943 4.12737C10.555 4.12737 9.97003 4.66148 9.91917 5.50079Z" fill="white"/>
</svg>
