<svg width="26" height="26" viewBox="0 0 26 26" fill="none" xmlns="http://www.w3.org/2000/svg">
<path d="M7.80713 25.6725C7.12098 25.6725 6.53337 25.4271 6.04433 24.9364C5.55529 24.4457 5.31118 23.8564 5.31201 23.1687C5.31201 22.4802 5.55654 21.8905 6.04558 21.3998C6.53462 20.909 7.12181 20.6641 7.80713 20.6649C8.49329 20.6649 9.08089 20.9103 9.56993 21.401C10.059 21.8918 10.3031 22.481 10.3023 23.1687C10.3023 23.8573 10.0577 24.4469 9.56869 24.9377C9.07964 25.4284 8.49246 25.6734 7.80713 25.6725ZM20.2827 25.6725C19.5966 25.6725 19.009 25.4271 18.5199 24.9364C18.0309 24.4457 17.7868 23.8564 17.7876 23.1687C17.7876 22.4802 18.0321 21.8905 18.5212 21.3998C19.0102 20.909 19.5974 20.6641 20.2827 20.6649C20.9689 20.6649 21.5565 20.9103 22.0455 21.401C22.5346 21.8918 22.7787 22.481 22.7778 23.1687C22.7778 23.8573 22.5333 24.4469 22.0443 24.9377C21.5552 25.4284 20.9681 25.6734 20.2827 25.6725ZM6.74671 5.64212L9.74085 11.9016H18.4738L21.9046 5.64212H6.74671ZM7.80713 19.413C6.87146 19.413 6.16451 19.0007 5.68628 18.1761C5.20805 17.3516 5.18726 16.5328 5.6239 15.7199L7.30811 12.6528L2.8169 3.13833H1.53815C1.18467 3.13833 0.893575 3.01814 0.664856 2.77778C0.436137 2.53741 0.321777 2.2403 0.321777 1.88643C0.321777 1.53172 0.441543 1.23419 0.681074 0.993821C0.920606 0.753456 1.21669 0.633691 1.56934 0.634526H3.59662C3.82534 0.634526 4.04366 0.697121 4.25159 0.822311C4.45952 0.947501 4.61546 1.12485 4.71942 1.35437L5.56153 3.13833H23.963C24.5244 3.13833 24.9091 3.34698 25.117 3.76428C25.3249 4.18158 25.3145 4.61974 25.0858 5.07877L20.657 13.0909C20.4283 13.5082 20.1268 13.8316 19.7525 14.0612C19.3782 14.2907 18.952 14.4054 18.4738 14.4054H9.17945L7.80713 16.9092H21.5615C21.9149 16.9092 22.206 17.0294 22.4348 17.2698C22.6635 17.5101 22.7778 17.8073 22.7778 18.1611C22.7778 18.5158 22.6581 18.8134 22.4185 19.0537C22.179 19.2941 21.8829 19.4139 21.5303 19.413H7.80713Z" fill="#353535"/>
</svg>
