<svg width="11" height="7" viewBox="0 0 11 7" fill="none" xmlns="http://www.w3.org/2000/svg">
<path d="M10.3978 1.09909C10.2152 0.916939 9.96818 0.814697 9.7107 0.814697C9.45323 0.814697 9.20621 0.916939 9.0236 1.09909L5.52474 4.56121L2.0746 1.09909C1.892 0.916939 1.64498 0.814697 1.3875 0.814697C1.13002 0.814697 0.883005 0.916939 0.700399 1.09909C0.609049 1.19001 0.536544 1.29818 0.487064 1.41736C0.437584 1.53653 0.412109 1.66436 0.412109 1.79347C0.412109 1.92258 0.437584 2.05041 0.487064 2.16959C0.536544 2.28877 0.609049 2.39693 0.700399 2.48785L4.83276 6.63457C4.92336 6.72624 5.03116 6.79899 5.14992 6.84865C5.26869 6.8983 5.39608 6.92386 5.52474 6.92386C5.6534 6.92386 5.78079 6.8983 5.89955 6.84865C6.01832 6.79899 6.12611 6.72624 6.21671 6.63457L10.3978 2.48785C10.4892 2.39693 10.5617 2.28877 10.6111 2.16959C10.6606 2.05041 10.6861 1.92258 10.6861 1.79347C10.6861 1.66436 10.6606 1.53653 10.6111 1.41736C10.5617 1.29818 10.4892 1.19001 10.3978 1.09909Z" fill="#636363"/>
</svg>
