<svg width="12" height="12" viewBox="0 0 12 12" fill="none" xmlns="http://www.w3.org/2000/svg">
<path d="M5.94716 3.1181C7.54949 3.1181 8.87205 4.44066 8.87205 6.04299C8.87205 7.67075 7.54949 8.96787 5.94716 8.96787C4.3194 8.96787 3.02228 7.67075 3.02228 6.04299C3.02228 4.44066 4.3194 3.1181 5.94716 3.1181ZM5.94716 7.95052C6.98995 7.95052 7.82926 7.11121 7.82926 6.04299C7.82926 5.0002 6.98995 4.16089 5.94716 4.16089C4.87894 4.16089 4.03963 5.0002 4.03963 6.04299C4.03963 7.11121 4.90438 7.95052 5.94716 7.95052ZM9.66049 3.01637C9.66049 3.39788 9.35529 3.70308 8.97378 3.70308C8.59227 3.70308 8.28707 3.39788 8.28707 3.01637C8.28707 2.63486 8.59227 2.32966 8.97378 2.32966C9.35529 2.32966 9.66049 2.63486 9.66049 3.01637ZM11.5935 3.70308C11.6443 4.64413 11.6443 7.46728 11.5935 8.40833C11.5426 9.32394 11.3391 10.1124 10.6778 10.7991C10.0166 11.4604 9.20268 11.6638 8.28707 11.7147C7.34602 11.7656 4.52287 11.7656 3.58182 11.7147C2.66621 11.6638 1.87776 11.4604 1.19105 10.7991C0.529771 10.1124 0.326301 9.32394 0.275434 8.40833C0.224566 7.46728 0.224566 4.64413 0.275434 3.70308C0.326301 2.78747 0.529771 1.97359 1.19105 1.31231C1.87776 0.65103 2.66621 0.44756 3.58182 0.396692C4.52287 0.345825 7.34602 0.345825 8.28707 0.396692C9.20268 0.44756 10.0166 0.65103 10.6778 1.31231C11.3391 1.97359 11.5426 2.78747 11.5935 3.70308ZM10.3726 9.40024C10.6778 8.66266 10.6015 6.8823 10.6015 6.04299C10.6015 5.22911 10.6778 3.44874 10.3726 2.68573C10.1692 2.20249 9.78766 1.79555 9.30442 1.61751C8.54141 1.31231 6.76104 1.38861 5.94716 1.38861C5.10785 1.38861 3.32749 1.31231 2.58991 1.61751C2.08123 1.82098 1.69972 2.20249 1.49625 2.68573C1.19105 3.44874 1.26735 5.22911 1.26735 6.04299C1.26735 6.8823 1.19105 8.66266 1.49625 9.40024C1.69972 9.90892 2.08123 10.2904 2.58991 10.4939C3.32749 10.7991 5.10785 10.7228 5.94716 10.7228C6.76104 10.7228 8.54141 10.7991 9.30442 10.4939C9.78766 10.2904 10.1946 9.90892 10.3726 9.40024Z" fill="white"/>
</svg>
