<svg width="13" height="12" viewBox="0 0 13 12" fill="none" xmlns="http://www.w3.org/2000/svg">
<path d="M3.29338 11.9263H0.928036V4.32157H3.29338V11.9263ZM2.09799 3.30422C1.36041 3.30422 0.75 2.66838 0.75 1.90537C0.75 1.16779 1.36041 0.557378 2.09799 0.557378C2.861 0.557378 3.47141 1.16779 3.47141 1.90537C3.47141 2.66838 2.861 3.30422 2.09799 3.30422ZM12.1189 11.9263H9.77899V8.23837C9.77899 7.34819 9.75355 6.22911 8.53273 6.22911C7.31191 6.22911 7.13387 7.17016 7.13387 8.16207V11.9263H4.76853V4.32157H7.03214V5.36436H7.05757C7.38821 4.77938 8.15122 4.14354 9.29574 4.14354C11.6865 4.14354 12.1443 5.72043 12.1443 7.75513V11.9263H12.1189Z" fill="white"/>
</svg>
