<svg width="13" height="14" viewBox="0 0 13 14" fill="none" xmlns="http://www.w3.org/2000/svg">
<path d="M4.30762 13.8057C0.879883 10.4043 0.879883 4.84082 4.30762 1.43945C4.46582 1.28125 4.67676 1.25488 4.86133 1.36035L6.5752 2.44141C6.70703 2.52051 6.78613 2.65234 6.78613 2.81055C6.78613 2.86328 6.78613 2.94238 6.75977 2.99512L5.88965 5.13086C5.83691 5.28906 5.67871 5.39453 5.46777 5.39453H5.44141L3.96484 5.2627C3.41113 6.79199 3.41113 8.47949 3.96484 9.98242L5.44141 9.85059H5.46777C5.67871 9.85059 5.83691 9.95605 5.88965 10.1143L6.75977 12.25C6.78613 12.3027 6.78613 12.3818 6.78613 12.4346C6.78613 12.5928 6.70703 12.7246 6.5752 12.8037L4.86133 13.8848C4.78223 13.9375 4.70312 13.9375 4.62402 13.9375C4.49219 13.9375 4.38672 13.9111 4.30762 13.8057ZM8.2627 2.96875C8.55273 3.49609 8.55273 4.15527 8.2627 4.68262C8.15723 4.86719 7.91992 4.89355 7.76172 4.76172L7.60352 4.60352C7.49805 4.49805 7.47168 4.33984 7.55078 4.20801C7.60352 4.10254 7.62988 3.9707 7.62988 3.83887C7.62988 3.68066 7.60352 3.54883 7.55078 3.44336C7.47168 3.31152 7.49805 3.15332 7.60352 3.04785L7.76172 2.88965C7.91992 2.75781 8.15723 2.78418 8.2627 2.96875ZM10.6621 0.569336C12.2705 2.44141 12.2705 5.20996 10.6621 7.08203C10.5566 7.24023 10.3457 7.24023 10.2139 7.1084L10.0557 6.97656C9.9502 6.84473 9.92383 6.66016 10.0293 6.52832C11.3477 4.97266 11.3477 2.67871 10.0293 1.12305C9.92383 0.991211 9.9502 0.806641 10.0557 0.674805L10.2139 0.542969C10.3457 0.411133 10.5566 0.411133 10.6621 0.569336ZM9.44922 1.75586C10.3984 2.96875 10.4248 4.68262 9.44922 5.89551C9.34375 6.05371 9.13281 6.08008 9.00098 5.94824L8.84277 5.79004C8.71094 5.68457 8.71094 5.5 8.79004 5.36816C9.50195 4.47168 9.50195 3.17969 8.79004 2.2832C8.71094 2.15137 8.71094 1.9668 8.84277 1.86133L9.00098 1.70312C9.13281 1.57129 9.34375 1.59766 9.44922 1.75586Z" fill="white"/>
</svg>
