<svg width="12" height="12" viewBox="0 0 12 12" fill="none" xmlns="http://www.w3.org/2000/svg">
<path d="M5.875 0.332031C8.88525 0.332031 11.3242 2.771 11.3242 5.78125C11.3242 8.7915 8.88525 11.2305 5.875 11.2305C2.86475 11.2305 0.425781 8.7915 0.425781 5.78125C0.425781 2.771 2.86475 0.332031 5.875 0.332031ZM5.875 10.1758C8.29199 10.1758 10.2695 8.22021 10.2695 5.78125C10.2695 3.36426 8.29199 1.38672 5.875 1.38672C3.43604 1.38672 1.48047 3.36426 1.48047 5.78125C1.48047 8.22021 3.43604 10.1758 5.875 10.1758ZM7.21533 7.89062L5.34766 6.52832C5.28174 6.48438 5.25977 6.39648 5.25977 6.33057V2.70508C5.25977 2.57324 5.36963 2.44141 5.52344 2.44141H6.22656C6.3584 2.44141 6.49023 2.57324 6.49023 2.70508V5.8252L7.94043 6.90186C8.07227 6.98975 8.09424 7.14355 8.00635 7.27539L7.58887 7.82471C7.50098 7.95654 7.34717 7.97852 7.21533 7.89062Z" fill="white"/>
</svg>
