<svg width="14" height="12" viewBox="0 0 14 12" fill="none" xmlns="http://www.w3.org/2000/svg">
<path d="M12.1741 3.39788C12.1741 3.52504 12.1741 3.62678 12.1741 3.75395C12.1741 7.28924 9.50355 11.3332 4.59484 11.3332C3.06881 11.3332 1.66995 10.9008 0.5 10.1378C0.70347 10.1633 0.90694 10.1887 1.13584 10.1887C2.3821 10.1887 3.52662 9.75632 4.44223 9.04417C3.27228 9.01874 2.28036 8.25572 1.94972 7.18751C2.12776 7.21294 2.28036 7.23837 2.4584 7.23837C2.6873 7.23837 2.94164 7.18751 3.14511 7.13664C1.92429 6.8823 1.00868 5.81408 1.00868 4.51696V4.49153C1.36475 4.695 1.79712 4.79673 2.2295 4.82217C1.49192 4.33893 1.03411 3.52504 1.03411 2.60943C1.03411 2.10075 1.16128 1.64295 1.39018 1.26144C2.71274 2.86377 4.69657 3.93198 6.90931 4.05915C6.85844 3.85568 6.83301 3.65221 6.83301 3.44874C6.83301 1.97359 8.02839 0.778198 9.50355 0.778198C10.2666 0.778198 10.9533 1.0834 11.462 1.61751C12.0469 1.49034 12.6319 1.26144 13.1406 0.956235C12.9371 1.59208 12.5302 2.10075 11.9706 2.43139C12.5047 2.38053 13.0388 2.22792 13.4967 2.02445C13.1406 2.55856 12.6828 3.01637 12.1741 3.39788Z" fill="white"/>
</svg>
