<svg width="12" height="11" viewBox="0 0 12 11" fill="none" xmlns="http://www.w3.org/2000/svg">
<path d="M11.8689 2.44874C11.818 3.56783 11.055 5.06842 9.55442 7.00139C8.00296 9.01065 6.70584 10.028 5.61219 10.028C4.95091 10.028 4.39137 9.41759 3.93356 8.19677C3.04338 4.89038 2.66187 2.98285 1.92429 2.98285C1.82256 2.98285 1.54278 3.16089 1.03411 3.51696L0.5 2.83025C1.79712 1.6603 3.04338 0.388609 3.83182 0.312307C4.722 0.236006 5.28155 0.846416 5.48502 2.14354C6.19716 6.74705 6.5278 7.45919 7.85036 5.34819C8.3336 4.61061 8.58794 4.02564 8.6388 3.64413C8.74054 2.47418 7.72319 2.55048 7.01104 2.85568C7.57059 1.02445 8.6388 0.134271 10.2157 0.185139C11.3857 0.210572 11.9452 0.973585 11.8689 2.44874Z" fill="white"/>
</svg>
