<svg width="39" height="39" viewBox="0 0 39 39" fill="none" xmlns="http://www.w3.org/2000/svg">
<path d="M35.2322 1.44824H3.56872C2.48418 1.44824 1.60498 2.3248 1.60498 3.40608V34.9744C1.60498 36.0556 2.48418 36.9322 3.56872 36.9322H35.2322C36.3167 36.9322 37.1959 36.0556 37.1959 34.9744V3.40608C37.1959 2.3248 36.3167 1.44824 35.2322 1.44824Z" fill="#3D5A98"/>
<path d="M26.1584 36.9243V23.1835H30.7834L31.4751 17.8287H26.1584V14.4108C26.1584 12.8607 26.5914 11.8023 28.8197 11.8023H31.6645V7.00519C30.287 6.86205 28.9026 6.79399 27.5176 6.80131C23.4218 6.80131 20.6011 9.28982 20.6011 13.8801V17.8287H15.9761V23.1835H20.6011V36.9243H26.1584Z" fill="white"/>
</svg>
