<svg width="39" height="39" viewBox="0 0 39 39" fill="none" xmlns="http://www.w3.org/2000/svg">
<g clip-path="url(#clip0_65_773)">
<path d="M29.4619 -0.00878906H9.01251C4.02991 -0.00878906 -0.00927734 4.01826 -0.00927734 8.98587V29.3738C-0.00927734 34.3414 4.02991 38.3684 9.01251 38.3684H29.4619C34.4445 38.3684 38.4837 34.3414 38.4837 29.3738V8.98587C38.4837 4.01826 34.4445 -0.00878906 29.4619 -0.00878906Z" fill="url(#paint0_radial_65_773)"/>
<path d="M29.4619 -0.00878906H9.01251C4.02991 -0.00878906 -0.00927734 4.01826 -0.00927734 8.98587V29.3738C-0.00927734 34.3414 4.02991 38.3684 9.01251 38.3684H29.4619C34.4445 38.3684 38.4837 34.3414 38.4837 29.3738V8.98587C38.4837 4.01826 34.4445 -0.00878906 29.4619 -0.00878906Z" fill="url(#paint1_radial_65_773)"/>
<path d="M19.2315 4.18652C15.1479 4.18652 14.6354 4.20436 13.0316 4.27707C11.4308 4.35023 10.3381 4.60283 9.38212 4.97356C8.39304 5.35643 7.55416 5.86867 6.71844 6.70218C5.88197 7.53553 5.36818 8.37189 4.98295 9.35755C4.61005 10.311 4.35639 11.4008 4.28437 12.996C4.21264 14.5951 4.19385 15.1063 4.19385 19.1778C4.19385 23.2492 4.21189 23.7586 4.28467 25.3575C4.35834 26.9535 4.61171 28.0429 4.98325 28.996C5.36758 29.9821 5.88137 30.8185 6.71739 31.6517C7.55296 32.4857 8.39183 32.9991 9.38017 33.382C10.3369 33.7527 11.4298 34.0053 13.0302 34.0785C14.6342 34.1512 15.1463 34.169 19.2297 34.169C23.3137 34.169 23.8246 34.1512 25.4284 34.0785C27.0292 34.0053 28.1231 33.7527 29.0798 33.382C30.0685 32.9991 30.9061 32.4857 31.7416 31.6517C32.578 30.8185 33.0917 29.9821 33.4771 28.9965C33.8466 28.0429 34.1005 26.9532 34.1756 25.3578C34.2477 23.7589 34.2665 23.2492 34.2665 19.1778C34.2665 15.1063 34.2477 14.5954 34.1756 12.9963C34.1005 11.4004 33.8466 10.3111 33.4771 9.358C33.0917 8.37189 32.578 7.53553 31.7416 6.70218C30.9052 5.86837 30.0688 5.35613 29.0789 4.97371C28.1204 4.60283 27.0271 4.35008 25.4263 4.27707C23.8224 4.20436 23.3118 4.18652 19.2268 4.18652H19.2315ZM17.8826 6.88807C18.283 6.88747 18.7297 6.88807 19.2315 6.88807C23.2464 6.88807 23.7221 6.90246 25.3075 6.97427C26.7736 7.04113 27.5693 7.28533 28.0993 7.49056C28.8011 7.7622 29.3013 8.08706 29.8273 8.61189C30.3536 9.13658 30.6792 9.63623 30.9525 10.3359C31.1583 10.8636 31.4035 11.6569 31.4703 13.1185C31.5423 14.6989 31.558 15.1735 31.558 19.1743C31.558 23.1751 31.5423 23.6499 31.4703 25.2301C31.4032 26.6917 31.1583 27.4851 30.9525 28.0129C30.68 28.7125 30.3536 29.2107 29.8273 29.7351C29.301 30.2598 28.8014 30.5845 28.0993 30.8563C27.5699 31.0624 26.7736 31.306 25.3075 31.3729C23.7224 31.4447 23.2464 31.4603 19.2315 31.4603C15.2165 31.4603 14.7406 31.4447 13.1556 31.3729C11.6896 31.3054 10.8939 31.0612 10.3634 30.856C9.6618 30.5842 9.16049 30.2595 8.63422 29.7348C8.10795 29.2101 7.78226 28.7116 7.50905 28.0117C7.30321 27.4839 7.05796 26.6905 6.9912 25.2289C6.91918 23.6486 6.90474 23.1739 6.90474 19.1706C6.90474 15.1673 6.91918 14.6951 6.9912 13.1148C7.05826 11.6531 7.30321 10.8598 7.50905 10.3314C7.78166 9.63174 8.10795 9.13208 8.63437 8.6074C9.16064 8.08271 9.6618 7.75785 10.3635 7.48561C10.8936 7.27949 11.6896 7.03588 13.1556 6.96872C14.5427 6.90621 15.0803 6.88747 17.8826 6.88432V6.88807ZM27.2579 9.37719C26.2617 9.37719 25.4535 10.1822 25.4535 11.1755C25.4535 12.1687 26.2617 12.9745 27.2579 12.9745C28.254 12.9745 29.0622 12.1687 29.0622 11.1755C29.0622 10.1824 28.254 9.37659 27.2579 9.37659V9.37719ZM19.2315 11.4791C14.9672 11.4791 11.5098 14.9261 11.5098 19.1778C11.5098 23.4294 14.9672 26.8748 19.2315 26.8748C23.496 26.8748 26.9522 23.4294 26.9522 19.1778C26.9522 14.9263 23.4957 11.4791 19.2312 11.4791H19.2315ZM19.2315 14.1806C21.9995 14.1806 24.2437 16.4178 24.2437 19.1778C24.2437 21.9375 21.9995 24.1749 19.2315 24.1749C16.4633 24.1749 14.2195 21.9375 14.2195 19.1778C14.2195 16.4178 16.4633 14.1806 19.2315 14.1806Z" fill="white"/>
</g>
<defs>
<radialGradient id="paint0_radial_65_773" cx="0" cy="0" r="1" gradientUnits="userSpaceOnUse" gradientTransform="translate(10.2154 41.3242) rotate(-90) scale(38.0347 35.4819)">
<stop stop-color="#FFDD55"/>
<stop offset="0.1" stop-color="#FFDD55"/>
<stop offset="0.5" stop-color="#FF543E"/>
<stop offset="1" stop-color="#C837AB"/>
</radialGradient>
<radialGradient id="paint1_radial_65_773" cx="0" cy="0" r="1" gradientUnits="userSpaceOnUse" gradientTransform="translate(-6.457 2.75572) rotate(78.6478) scale(17.0037 70.2848)">
<stop stop-color="#3771C8"/>
<stop offset="0.128" stop-color="#3771C8"/>
<stop offset="1" stop-color="#6600FF" stop-opacity="0"/>
</radialGradient>
<clipPath id="clip0_65_773">
<rect width="38.493" height="38.3772" fill="white" transform="translate(0 0.000976562)"/>
</clipPath>
</defs>
</svg>
