<svg width="38" height="37" viewBox="0 0 38 37" fill="none" xmlns="http://www.w3.org/2000/svg">
<g clip-path="url(#clip0_65_786)">
<path fill-rule="evenodd" clip-rule="evenodd" d="M28.098 36.935H10.0157C7.61792 36.9349 5.31833 35.9852 3.62281 34.2947C1.92729 32.6043 0.974714 30.3116 0.974609 27.921L0.974609 9.89293C0.974714 7.5023 1.92729 5.2096 3.62281 3.51917C5.31833 1.82873 7.61792 0.879011 10.0157 0.878906L28.098 0.878906C30.4959 0.878906 32.7955 1.8286 34.4911 3.51905C36.1866 5.20951 37.1392 7.50226 37.1392 9.89293V27.921C37.1392 30.3116 36.1866 32.6044 34.4911 34.2949C32.7955 35.9853 30.4959 36.935 28.098 36.935Z" fill="#2864B4"/>
<path fill-rule="evenodd" clip-rule="evenodd" d="M17.9267 11.0197H28.098C29.4018 11.0196 30.6558 10.5203 31.6009 9.62499C32.5461 8.72965 33.1103 7.50661 33.177 6.20845C33.2437 4.91029 32.8079 3.63616 31.9595 2.64918C31.111 1.66221 29.9148 1.03777 28.6179 0.904822C28.445 0.895244 28.2738 0.878906 28.098 0.878906H10.0157C7.61792 0.879011 5.31833 1.82873 3.62281 3.51917C1.92729 5.2096 0.974714 7.50229 0.974609 9.89293L0.974609 27.921C0.974714 23.4385 2.76077 19.1397 5.93989 15.9701C9.11901 12.8005 13.4308 11.0198 17.9267 11.0197Z" fill="#417DCD"/>
<path fill-rule="evenodd" clip-rule="evenodd" d="M28.0917 18.9066C26.3036 18.9066 24.5556 19.4352 23.0688 20.4257C21.5821 21.4161 20.4233 22.8239 19.739 24.471C19.0547 26.1181 18.8757 27.9305 19.2245 29.6791C19.5733 31.4276 20.4344 33.0337 21.6988 34.2944C22.9632 35.555 24.5741 36.4135 26.3279 36.7613C28.0816 37.1091 29.8995 36.9306 31.5515 36.2484C33.2035 35.5661 34.6155 34.4108 35.6089 32.9284C36.6023 31.4461 37.1326 29.7033 37.1326 27.9205V9.89258C37.1326 12.2832 36.18 14.576 34.4845 16.2664C32.7891 17.9569 30.4895 18.9066 28.0917 18.9066Z" fill="#0F4B9B"/>
<path d="M11.1511 14.9609H8.89085C8.26671 14.9609 7.76074 15.4654 7.76074 16.0877V29.0453C7.76074 29.6676 8.26671 30.172 8.89085 30.172H11.1511C11.7752 30.172 12.2812 29.6676 12.2812 29.0453V16.0877C12.2812 15.4654 11.7752 14.9609 11.1511 14.9609Z" fill="white"/>
<path d="M10.0168 12.7067C11.577 12.7067 12.8418 11.4456 12.8418 9.88995C12.8418 8.33432 11.577 7.07324 10.0168 7.07324C8.45666 7.07324 7.19189 8.33432 7.19189 9.88995C7.19189 11.4456 8.45666 12.7067 10.0168 12.7067Z" fill="white"/>
<path fill-rule="evenodd" clip-rule="evenodd" d="M20.1879 17.0135C20.6436 16.2193 21.3017 15.5593 22.0955 15.1002C22.8893 14.6412 23.7907 14.3994 24.7084 14.3994C27.5828 14.3994 30.3589 16.0895 30.3589 20.5965V29.0471C30.359 29.1951 30.3298 29.3416 30.273 29.4784C30.2162 29.6151 30.133 29.7393 30.028 29.844C29.9231 29.9486 29.7985 30.0316 29.6613 30.0882C29.5242 30.1448 29.3772 30.1739 29.2288 30.1739H26.9686C26.8202 30.1739 26.6732 30.1448 26.5361 30.0882C26.3989 30.0316 26.2743 29.9486 26.1694 29.844C26.0644 29.7393 25.9812 29.6151 25.9244 29.4784C25.8676 29.3416 25.8384 29.1951 25.8385 29.0471V21.1599C25.8385 20.4128 25.5408 19.6963 25.011 19.1681C24.4811 18.6398 23.7625 18.343 23.0132 18.343C22.2639 18.343 21.5453 18.6398 21.0154 19.1681C20.4856 19.6963 20.1879 20.4128 20.1879 21.1599V29.0471C20.188 29.1951 20.1588 29.3416 20.102 29.4784C20.0452 29.6151 19.962 29.7393 19.857 29.844C19.7521 29.9486 19.6275 30.0316 19.4903 30.0882C19.3532 30.1448 19.2062 30.1739 19.0578 30.1739H16.7976C16.6492 30.1739 16.5022 30.1448 16.3651 30.0882C16.2279 30.0316 16.1033 29.9486 15.9984 29.844C15.8934 29.7393 15.8102 29.6151 15.7534 29.4784C15.6966 29.3416 15.6674 29.1951 15.6675 29.0471V16.0895C15.6674 15.9416 15.6966 15.795 15.7534 15.6583C15.8102 15.5216 15.8934 15.3973 15.9984 15.2927C16.1033 15.1881 16.2279 15.1051 16.3651 15.0485C16.5022 14.9919 16.6492 14.9627 16.7976 14.9628H19.0578C19.2062 14.9627 19.3532 14.9919 19.4903 15.0485C19.6275 15.1051 19.7521 15.1881 19.857 15.2927C19.962 15.3973 20.0452 15.5216 20.102 15.6583C20.1588 15.795 20.188 15.9416 20.1879 16.0895V17.0135Z" fill="white"/>
</g>
<defs>
<clipPath id="clip0_65_786">
<rect width="36.1646" height="36.0561" fill="white" transform="translate(0.986328 0.87793)"/>
</clipPath>
</defs>
</svg>
