<svg width="39" height="39" viewBox="0 0 39 39" fill="none" xmlns="http://www.w3.org/2000/svg">
<g clip-path="url(#clip0_65_781)">
<path d="M29.9604 0H9.51104C4.52845 0 0.489258 4.02705 0.489258 8.99466V29.3826C0.489258 34.3502 4.52845 38.3772 9.51104 38.3772H29.9604C34.943 38.3772 38.9822 34.3502 38.9822 29.3826V8.99466C38.9822 4.02705 34.943 0 29.9604 0Z" fill="white"/>
<path d="M29.9604 0H9.51104C4.52845 0 0.489258 4.02705 0.489258 8.99466V29.3826C0.489258 34.3502 4.52845 38.3772 9.51104 38.3772H29.9604C34.943 38.3772 38.9822 34.3502 38.9822 29.3826V8.99466C38.9822 4.02705 34.943 0 29.9604 0Z" fill="#1D9BF0"/>
<path d="M30.4935 13.7054C30.51 13.9433 30.51 14.1813 30.51 14.4214C30.51 21.7366 24.9245 30.1732 14.7111 30.1732V30.1687C11.6938 30.1731 8.73912 29.3115 6.19971 27.687C6.63845 27.7396 7.07931 27.7658 7.52136 27.7669C10.0221 27.7688 12.4508 26.9326 14.4174 25.3924C13.2587 25.3706 12.1359 24.9883 11.2058 24.299C10.2757 23.6097 9.58496 22.6479 9.23004 21.548C10.0619 21.7079 10.9196 21.6753 11.7368 21.4526C9.14644 20.9308 7.28274 18.6616 7.28274 16.0262V15.956C8.05497 16.3849 8.91922 16.6225 9.80276 16.6489C7.36303 15.0232 6.61094 11.787 8.08415 9.25686C9.47818 10.9672 11.2175 12.366 13.1891 13.3625C15.1607 14.3589 17.3204 14.9307 19.5281 15.0407C19.308 14.096 19.3405 13.1103 19.6224 12.1821C19.9043 11.2538 20.4257 10.4157 21.1344 9.75141C23.3708 7.65537 26.8882 7.76285 28.9905 9.99142C30.234 9.74665 31.4264 9.29215 32.5166 8.64747C32.102 9.9293 31.2346 11.0174 30.0756 11.7092C31.1764 11.5799 32.2513 11.2862 33.2643 10.8378C32.5191 11.9504 31.5808 12.9214 30.4935 13.7054Z" fill="white"/>
</g>
<defs>
<clipPath id="clip0_65_781">
<rect width="38.493" height="38.3772" fill="white" transform="translate(0.493164)"/>
</clipPath>
</defs>
</svg>
